# xmcd
#
# Track frame offsets:
# 150
# 23242
# 39967
# 55424
# 77834
# 98939
# 113417
# 135648
# 151531
# 170596
# 194821
# 209768
# 233339
# 265290
#
# Disc length: 3714 seconds
#
# Revision: 0
# Processed by: cddbd v1.5.2PL0 Copyright (c) Steve Scherf et al.
# Submitted via: Audion 3.0.2 (http://www.panic.com/audion/)
#
DISCID=b70e800e
DTITLE=Jim Chappell - Comfort Songs
DYEAR=1900
DGENRE=
TTITLE0=Gone
TTITLE1=Reaching
TTITLE2=Of a Silver Night
TTITLE3=With You
TTITLE4=Alone
TTITLE5=Otherwise
TTITLE6=On That Day
TTITLE7=Why?
TTITLE8=Mixed Moments
TTITLE9=With Broken Heart
TTITLE10=Street Story
TTITLE11=Somewhere
TTITLE12=Out Towards the Islands
TTITLE13=Almost There
EXTD=
EXTT0=
EXTT1=
EXTT2=
EXTT3=
EXTT4=
EXTT5=
EXTT6=
EXTT7=
EXTT8=
EXTT9=
EXTT10=
EXTT11=
EXTT12=
EXTT13=
PLAYORDER=
